<svg version="1.2" xmlns="http://www.w3.org/2000/svg" viewBox="0 0 187 187" width="187" height="187"><style>.a{fill:#3d9a09}</style><path fill-rule="evenodd" class="a" d="m159.3 39.8c2.7 1.3 4.3 4 4.3 7v46.7c0 20.7-6.7 38.1-18.7 52.3-11.9 14.1-28.7 24.7-48.5 32.8-1.8 0.8-4 0.8-5.8 0-19.8-8.1-36.6-18.7-48.5-32.8-12-14.2-18.7-31.6-18.7-52.3v-46.8c0-2.9 1.6-5.6 4.3-6.9l62.3-31.2c2.2-1.1 4.8-1.1 7 0zm-105.3 96c9.2 10.9 22.5 19.9 39.5 27.2 16.9-7.3 30.2-16.3 39.5-27.2 9.6-11.4 15-25.2 15-42.3v-41.9l-54.5-27.3-54.6 27.3v41.9c0 17.1 5.4 30.9 15.1 42.3zm36.2-13.8c-1.4 1.6-3.4 2.6-5.6 2.7-2.1 0.1-4.2-0.7-5.8-2.2l-22-21.6c-3-3-3.1-8-0.1-11 3.1-3.1 8-3.1 11.1-0.1l16 15.7 34.9-40.4c2.8-3.3 7.8-3.7 11-0.8 3.3 2.8 3.6 7.7 0.8 10.9z"/></svg>