<svg version="1.2" xmlns="http://www.w3.org/2000/svg" viewBox="0 0 187 187" width="187" height="187"><style>.a{fill:none;stroke:#000;stroke-linecap:round;stroke-linejoin:round;stroke-width:11.7}</style><filter id="f0"><feFlood flood-color="#3d9a09" flood-opacity="1" /><feBlend mode="normal" in2="SourceGraphic"/><feComposite in2="SourceAlpha" operator="in" /></filter><g filter="url(#f0)"><path class="a" d="m134.4 64.3l-40.9 23.4-40.9-23.4v-58.5h81.8v58.5z"/><path class="a" d="m93.5 181.2c-25.9 0-46.8-20.9-46.8-46.8 0-25.8 20.9-46.7 46.8-46.7 25.9 0 46.8 20.9 46.8 46.7 0 25.9-20.9 46.8-46.8 46.8z"/><path class="a" d="m93.5 111c-3.1 0-6.1 0.6-8.9 1.8-2.9 1.2-5.5 2.9-7.6 5.1-2.2 2.1-3.9 4.7-5.1 7.6-1.2 2.8-1.8 5.8-1.8 8.9"/><path class="a" d="m93.5 157.8c3.1 0 6.1-0.6 8.9-1.8 2.9-1.2 5.5-2.9 7.6-5.1 2.2-2.1 3.9-4.7 5.1-7.5 1.2-2.9 1.8-5.9 1.8-9"/><path class="a" d="m76 5.8v70.2"/><path class="a" d="m111 5.8v70.2"/></g></svg>