<svg version="1.2" xmlns="http://www.w3.org/2000/svg" viewBox="0 0 167 160" width="167" height="160"><style>.a{fill:#3d9a09}</style><path fill-rule="evenodd" class="a" d="m138.7 26.3c11.1 0 20.3 8.7 20.9 19.7l0.1 1.3v64.8c0 11.2-8.7 20.3-19.7 20.9l-1.3 0.1h-110.4c-11.1 0-20.3-8.7-20.9-19.7l-0.1-1.3v-64.8c0-11.2 8.7-20.3 19.7-21zm9.5 45.5h-129.4v40.3c0 4.9 3.7 9 8.5 9.5h111.4c4.9 0 9-3.7 9.5-8.5zm-17 26.7c3.1 0 5.7 2.6 5.7 5.7 0 2.9-2.1 5.3-4.9 5.7l-0.8 0.1h-19.1c-3.1 0-5.7-2.6-5.7-5.8 0-2.8 2.2-5.2 5-5.6l0.7-0.1zm-102.8-60.8c-5 0-9 3.7-9.5 8.5l-0.1 1v13.2h129.5v-13.2c0-4.9-3.8-9-8.6-9.5z"/></svg>