<svg version="1.2" xmlns="http://www.w3.org/2000/svg" viewBox="0 0 187 187" width="187" height="187"><style>.a{fill:#3d9a09}</style><path fill-rule="evenodd" class="a" d="m163.6 71.3c0 38.6-34.7 83.7-58.4 111-0.1 0.1-4.2 4.6-9.2 4.6h-0.5c-5 0-9.1-4.5-9.2-4.6-25.3-29.1-62.9-70.5-62.9-111 0-38.7 32.4-71.4 70.8-71.4 44.1 0 69.4 32.7 69.4 71.4zm-11.7-0.1c0-29.6-17.8-59.6-57.7-59.6-32.1 0-59.1 27.3-59.1 59.6 0 34.5 32.8 72.2 56.8 99.7l3.1 3.5c0.2 0.2 0.5 0.5 0.7 0.7 0.3-0.2 0.6-0.5 0.8-0.7 36.8-42.3 55.4-77 55.4-103.2zm-58.2 34.2c-19.4 0-35.1-15.6-35.1-35 0-19.4 15.7-35.1 35.1-35.1 19.4 0 35.1 15.7 35.1 35.1 0 19.4-15.7 35-35.1 35zm23.1-35.1c0-13-10.4-23.5-23.4-23.5-12.9 0-23.3 10.5-23.3 23.5 0 13 10.4 23.5 23.3 23.5 13 0 23.4-10.5 23.4-23.5z"/></svg>