<svg version="1.2" xmlns="http://www.w3.org/2000/svg" viewBox="0 0 187 187" width="187" height="187"><style>.a{fill:none;stroke:#000;stroke-linecap:round;stroke-linejoin:round;stroke-width:15.6}</style><filter id="f0"><feFlood flood-color="#3d9a09" flood-opacity="1" /><feBlend mode="normal" in2="SourceGraphic"/><feComposite in2="SourceAlpha" operator="in" /></filter><g filter="url(#f0)"><path class="a" d="m132.5 163.6v-15.6c0-4.1-0.8-8.1-2.4-11.9-1.6-3.8-3.9-7.2-6.8-10.1-2.9-2.9-6.3-5.2-10.1-6.8-3.8-1.5-7.8-2.3-11.9-2.3h-62.3c-4.1 0-8.2 0.8-12 2.3-3.7 1.6-7.2 3.9-10.1 6.8-2.9 2.9-5.2 6.3-6.7 10.1-1.6 3.8-2.4 7.8-2.4 11.9v15.6"/><path class="a" d="m70.1 85.7c-17.2 0-31.1-13.9-31.1-31.2 0-17.2 13.9-31.1 31.1-31.1 17.3 0 31.2 13.9 31.2 31.1 0 17.3-13.9 31.2-31.2 31.2z"/><path class="a" d="m132.5 85.7h46.7"/><path class="a" d="m155.8 62.3v46.8"/></g></svg>