<svg version="1.2" xmlns="http://www.w3.org/2000/svg" viewBox="0 0 187 187" width="187" height="187"><style></style><filter id="f0"><feFlood flood-color="#3d9a09" flood-opacity="1" /><feBlend mode="normal" in2="SourceGraphic"/><feComposite in2="SourceAlpha" operator="in" /></filter><g filter="url(#f0)"><path fill-rule="evenodd" d="m38.9 81.6c0-1.7 1.4-3 3-3h17.7c1.6 0 3 1.3 3 3v17.6c0 1.7-1.4 3-3 3h-17.7c-1.6 0-3-1.3-3-3zm5.6 15.1h12.5v-12.5h-12.5z"/><path fill-rule="evenodd" d="m81.1 81.6c0-1.7 1.3-3 3-3h17.6c1.7 0 3 1.3 3 3v17.6c0 1.7-1.3 3-3 3h-17.6c-1.7 0-3-1.3-3-3zm5.5 15.1h12.6v-12.5h-12.6z"/><path fill-rule="evenodd" d="m121.9 81.6c0-1.7 1.4-3 3-3h17.7c1.6 0 3 1.3 3 3v17.6c0 1.7-1.4 3-3 3h-17.7c-1.6 0-3-1.3-3-3zm5.6 15.1h12.5v-12.5h-12.5z"/><path fill-rule="evenodd" d="m38.9 122.7c0-1.6 1.4-3 3-3h17.7c1.6 0 3 1.4 3 3v17.7c0 1.6-1.4 3-3 3h-17.7c-1.6 0-3-1.4-3-3zm5.6 15.1h12.5v-12.6h-12.5z"/><path fill-rule="evenodd" d="m81.1 122.7c0-1.6 1.3-3 3-3h17.6c1.7 0 3 1.4 3 3v17.7c0 1.6-1.3 3-3 3h-17.6c-1.7 0-3-1.4-3-3zm5.5 15.1h12.6v-12.6h-12.6z"/><path fill-rule="evenodd" d="m121.9 122.7c0-1.6 1.4-3 3-3h17.7c1.6 0 3 1.4 3 3v17.7c0 1.6-1.4 3-3 3h-17.7c-1.6 0-3-1.4-3-3zm5.6 15.1h12.5v-12.6h-12.5z"/><path fill-rule="evenodd" d="m167.6 27.6v143.9c0 1.6-1.3 2.8-2.8 2.8h-144c-1.5 0-2.7-1.2-2.7-2.8v-143.9c0-1.6 1.2-2.8 2.7-2.8h18.4q0 0 0 0v-3.7c0-6 4.9-11 11-11 6 0 10.9 5 10.9 11v3.7h20.7v-3.7c0-6 4.9-11 11-11 6 0 11 5 11 11v3.7h20.6v-3.7c0-6 4.9-11 11-11 6 0 11 5 11 11v3.7q0 0 0 0h18.4c1.5 0 2.8 1.2 2.8 2.8zm-37.6 8.8c0 3 2.4 5.4 5.4 5.4 3 0 5.4-2.4 5.4-5.4v-15.3c0-3-2.4-5.4-5.4-5.4-3 0-5.4 2.4-5.4 5.4zm-42.6-15.3v6.2q0 0.1 0 0.2 0 0.2 0 0.3v8.6c0 3 2.4 5.4 5.4 5.4 3 0 5.4-2.4 5.4-5.4v-15.3c0-3-2.4-5.4-5.4-5.4-3 0-5.4 2.4-5.4 5.4zm-42.6 15.3c0 3 2.4 5.4 5.4 5.4 3 0 5.4-2.4 5.4-5.4v-15.3c0-3-2.4-5.4-5.4-5.4-3 0-5.4 2.4-5.4 5.4zm117.2-6.1h-15.6q0 0 0 0v6.1c0 6-5 11-11 11-6.1 0-11-5-11-11v-6.1h-20.6v6.1c0 6-5 11-11 11-6.1 0-11-5-11-11v-6.1h-20.7v6.1c0 6-4.9 11-10.9 11-6.1 0-11-5-11-11v-6.1q0 0 0 0h-15.6v138.4h138.4z"/></g></svg>