<svg version="1.2" xmlns="http://www.w3.org/2000/svg" viewBox="0 0 187 187" width="187" height="187"><style>.a{fill:#3d9a09}</style><path fill-rule="evenodd" class="a" d="m93.5 187c-51.7 0-93.5-41.8-93.5-93.5 0-51.7 41.8-93.5 93.5-93.5 51.7 0 93.5 41.8 93.5 93.5 0 51.7-41.8 93.5-93.5 93.5zm83.7-93.5c0-46.3-37.4-83.7-83.7-83.7-46.3 0-83.7 37.4-83.7 83.7 0 46.3 37.4 83.7 83.7 83.7 46.3 0 83.7-37.4 83.7-83.7zm-69.3 3.4l24 13.8c2.3 1.4 3.1 4.5 1.8 6.7-1.4 2.4-4.3 3.3-6.7 1.9l-24.5-14.1c-2.5 1.9-5.6 3.1-9 3.1-8.2 0-14.8-6.6-14.8-14.8 0-6.4 4.1-11.9 9.9-13.9v-45.1c0-2.8 2.3-5 4.9-5 2.7 0 4.9 2.3 4.9 5v45.1c5.8 2 9.9 7.5 9.9 13.9q0 1.7-0.4 3.4z"/></svg>