<svg version="1.2" xmlns="http://www.w3.org/2000/svg" viewBox="0 0 187 187" width="187" height="187"><style>.a{fill:#3d9a09}</style><path fill-rule="evenodd" class="a" d="m167.5 109.1c0 21.5-17.5 38.9-38.9 38.9h-85.7c-17.2 0-33.2-13.9-33.2-31.1 0-14.5 13.7-26.8 21.5-30.2v-1c0-25.8 22.9-46.7 48.7-46.7 20.1 0 39.5 12.7 45.9 31.2l2.8-0.1c21.4 0 38.9 17.5 38.9 39zm-15.5 0c0-12.9-10.5-23.4-23.4-23.4-1.9 0-3.9 0.3-6.3 1l-8.4 2.4-1.5-8.6c-2.5-15-15.4-26-30.6-26-17.2 0-31.2 14-31.2 31.2q0 3.2 0.7 6.3l1.9 9.4-11.1-0.1c-7.8 0-14.8 7-14.8 15.6 0 8.6 7 15.6 15.6 15.6h42.8v-29.6l-16.7 16.7c-0.8 0.8-1.8 1.2-2.8 1.2-1 0-1.9-0.4-2.7-1.2-1.5-1.5-1.5-4 0-5.5l23.4-23.4 1.2-0.8c1-0.4 2-0.4 3 0l1.3 0.8 23.3 23.4c1.6 1.5 1.6 4 0 5.5-0.7 0.8-1.7 1.2-2.7 1.2-1 0-2-0.4-2.8-1.2l-16.7-16.7v29.6h35.1c12.8 0 23.4-10.5 23.4-23.4z"/></svg>