<svg version="1.2" xmlns="http://www.w3.org/2000/svg" viewBox="0 0 620 620" width="620" height="620"><style>.a{fill:#3d9a09}</style><path fill-rule="evenodd" class="a" d="m179.2 484.4l-89.6 71.7c-2.9 2.2-6.3 3.7-9.9 4.1-3.6 0.4-7.3-0.2-10.6-1.8-3.3-1.6-6-4.1-8-7.1-1.9-3.1-3-6.7-3-10.4v-385.9c0-10.2 2-20.3 5.9-29.7 3.9-9.4 9.6-17.9 16.8-25.1 7.2-7.2 15.8-12.9 25.2-16.8 9.4-3.9 19.4-5.9 29.6-5.9h348.8c10.2 0 20.2 2 29.6 5.9 9.4 3.9 18 9.6 25.2 16.8 7.2 7.2 12.9 15.7 16.8 25.1 3.9 9.4 5.9 19.5 5.9 29.7v251.9c0 10.2-2 20.2-5.9 29.6-3.9 9.4-9.6 18-16.8 25.2-7.2 7.2-15.8 12.9-25.2 16.8-9.4 3.9-19.4 5.9-29.6 5.9zm-13.6-38.8h318.7c5.1 0 10.2-1 14.9-2.9 4.7-2 8.9-4.8 12.5-8.4 3.6-3.6 6.5-7.9 8.4-12.6 2-4.7 3-9.7 3-14.8v-251.9c0-5.1-1-10.1-3-14.8-1.9-4.7-4.8-9-8.4-12.6-3.6-3.6-7.8-6.5-12.5-8.4-4.7-1.9-9.8-3-14.9-3h-348.7c-5.1 0-10.1 1.1-14.8 3-4.7 1.9-9 4.8-12.6 8.4-3.6 3.6-6.5 7.9-8.4 12.6-2 4.7-3 9.7-3 14.8v345.6z"/><path class="a" d="m310 302.3c-8.2-0.1-16.1-3.3-21.9-9.1-5.8-5.8-9.1-13.7-9.1-22 0-8.2 3.3-16.1 9.1-21.9 5.8-5.8 13.7-9.1 21.9-9.1 8.2 0.1 16.1 3.3 21.9 9.1 5.8 5.8 9.1 13.7 9.1 21.9 0 8.3-3.3 16.2-9.1 22-5.8 5.8-13.7 9-21.9 9zm116.3 0c-8.3 0-16.2-3.2-22-9-5.8-5.8-9.1-13.7-9.1-22 0-8.2 3.3-16.1 9.1-21.9 5.8-5.8 13.7-9.1 22-9.1 8.2 0.1 16.1 3.3 21.9 9.1 5.8 5.8 9 13.7 9 21.9 0 8.3-3.2 16.2-9 22-5.8 5.8-13.7 9-21.9 9zm-232.6 0c-8.2 0-16.1-3.2-21.9-9-5.8-5.8-9.1-13.7-9.1-22 0-8.2 3.3-16.1 9.1-21.9 5.8-5.8 13.7-9.1 21.9-9.1 8.3 0.1 16.2 3.3 22 9.1 5.8 5.8 9 13.7 9 21.9 0 8.3-3.2 16.2-9 22-5.8 5.8-13.7 9-22 9z"/></svg>