<svg version="1.2" xmlns="http://www.w3.org/2000/svg" viewBox="0 0 20 20" width="20" height="20"><style></style><path  d="m20 3.8q-1.2 0.5-2.4 0.7c0.9-0.5 1.5-1.3 1.8-2.3q-1.2 0.7-2.6 1c-0.7-0.8-1.8-1.3-3-1.3-2.2 0-4.1 1.9-4.1 4.1q0 0.5 0.1 0.9c-3.4-0.1-6.4-1.8-8.4-4.2-0.4 0.6-0.6 1.3-0.6 2 0 1.4 0.8 2.7 1.9 3.4q-1.1 0-1.9-0.5v0.1c0 1.9 1.4 3.6 3.3 4q-0.5 0.1-1.1 0.1-0.4 0-0.8 0c0.6 1.6 2.1 2.8 3.9 2.8-1.4 1.1-3.2 1.8-5.1 1.8q-0.5 0-1-0.1c1.8 1.2 4 1.8 6.3 1.8 7.5 0 11.6-6.2 11.6-11.6q0-0.3 0-0.5 1.2-0.9 2.1-2.2z"/></svg>